<svg width="5272" height="1418" viewBox="0 0 5272 1418" fill="none" xmlns="http://www.w3.org/2000/svg">
<path d="M1172.22 602.19H913.204V1417.82H1172.22V602.19Z" fill="white"/>
<path d="M1621.18 215.518H1362.89V1415H1621.18V215.518Z" fill="white"/>
<path d="M3663.96 534.218V1391H3404.94V1310.45C3347.94 1375.58 3263.33 1415 3147.65 1415C2921.43 1415 2734.88 1217.84 2734.88 962.601C2734.88 707.363 2921.36 510.219 3147.65 510.219C3263.33 510.219 3347.94 549.634 3404.94 614.748V534.218H3663.96ZM3404.94 962.533C3404.94 834.004 3318.6 753.474 3199.41 753.474C3080.22 753.474 2993.88 833.987 2993.88 962.533C2993.88 1091.08 3080.22 1171.59 3199.41 1171.59C3318.6 1171.59 3404.94 1091.06 3404.94 962.533Z" fill="white"/>
<path d="M4515.24 1133.96C4515.24 1331.02 4342.58 1415 4156.08 1415C3983.4 1415 3852.17 1349.89 3784.8 1211.04L4009.29 1084.25C4031.75 1149.38 4080.08 1185.33 4156.08 1185.33C4218.23 1185.33 4249.32 1166.49 4249.32 1132.21C4249.32 1037.97 3824.56 1087.68 3824.56 791.208C3824.56 604.433 3983.42 510.187 4163 510.187C4302.86 510.187 4427.19 571.884 4499.72 693.529L4278.68 811.774C4254.53 767.226 4219.98 736.377 4163 736.377C4118.09 736.377 4090.48 753.527 4090.48 784.359C4090.48 882.038 4515.24 816.924 4515.24 1133.93" fill="white"/>
<path d="M5271.56 1133.96C5271.56 1331.02 5098.9 1415 4912.39 1415C4739.71 1415 4608.47 1349.89 4541.12 1211.04L4765.61 1084.25C4788.07 1149.38 4836.42 1185.33 4912.39 1185.33C4974.55 1185.33 5005.64 1166.49 5005.64 1132.21C5005.64 1037.97 4580.87 1087.68 4580.87 791.208C4580.87 604.433 4739.73 510.187 4919.33 510.187C5059.19 510.187 5183.51 571.884 5256.04 693.529L5034.98 811.774C5010.83 767.226 4976.3 736.377 4919.33 736.377C4874.41 736.377 4846.8 753.527 4846.8 784.359C4846.8 882.038 5271.56 816.924 5271.56 1133.93" fill="white"/>
<path d="M2490.05 275.279L2484.41 283.777L2345.61 494.247C2367.55 508.665 2385.41 528.394 2397.53 551.57C2409.64 574.746 2415.6 600.604 2414.84 626.701C2414.84 714.115 2352.67 780.98 2268.01 780.98H2086.75V472.525C2049.8 408.635 1993.95 305.21 1939.71 215.502H1810.5V1414.99H2086.78V1037.97H2268.04C2506.42 1037.97 2691.09 854.66 2691.09 626.65C2691.32 555.779 2672.9 486.077 2637.63 424.447C2602.37 362.817 2551.5 311.397 2490.05 275.279" fill="white"/>
<path d="M2018.19 0H2441.96C2448.55 0.000213291 2455.03 1.72961 2460.73 5.01306C2466.43 8.29651 2471.16 13.0173 2474.43 18.6973C2477.7 24.3772 2479.4 30.8145 2479.36 37.357C2479.32 43.8995 2477.54 50.3147 2474.19 55.9529L2262.26 412.797C2258.95 418.361 2254.23 422.973 2248.58 426.177C2242.93 429.381 2236.53 431.067 2230.02 431.067C2223.51 431.067 2217.11 429.381 2211.46 426.177C2205.81 422.973 2201.09 418.361 2197.79 412.797L1985.95 55.9529C1982.61 50.3147 1980.83 43.8995 1980.78 37.357C1980.74 30.8145 1982.44 24.3772 1985.72 18.6973C1988.99 13.0173 1993.71 8.29651 1999.42 5.01306C2005.12 1.72961 2011.6 0.000213291 2018.19 0" fill="#F4515E"/>
<path d="M1198.14 368.469C1198.14 398.973 1189.03 428.793 1171.95 454.158C1154.88 479.523 1130.61 499.293 1102.21 510.969C1073.81 522.645 1042.56 525.701 1012.41 519.752C982.263 513.803 954.569 499.116 932.832 477.547C911.095 455.979 896.291 428.498 890.293 398.581C884.295 368.663 887.372 337.652 899.134 309.47C910.897 281.287 930.817 257.199 956.375 240.252C981.933 223.304 1011.98 214.259 1042.72 214.259C1083.81 214.67 1123.1 231.049 1152.15 259.88C1181.21 288.711 1197.72 327.696 1198.14 368.469" fill="#F4515E"/>
<path d="M276.387 479.117V710.509H725.487V974.5H276.387V1415H0V215.125H734.102V479.117H276.387Z" fill="white"/>
</svg>
